# xmcd
#
# Track frame offsets: 
#        150
#        15962
#        35682
#        50965
#        68142
#        87802
#        107330
#        126007
#        141507
#        159382
#        172485
#        189165
#        208595
#        225845
#        254795
#
# Disc length: 4535 seconds
#
# Revision: 2
# Processed by: cddbd v1.5.1PL2 Copyright (c) Steve Scherf et al.
# Submitted via: ExactAudioCopy v0.95b3
#
DISCID=ce11b50f
DTITLE=Emerson Drive - What If
DYEAR=2004
DGENRE=Country
TTITLE0=Last One Standing
TTITLE1=Lemonade
TTITLE2=If You Were My Girl
TTITLE3=What If
TTITLE4=I'll Die Trying
TTITLE5=November
TTITLE6=Fishin' In The Dark
TTITLE7=You're Like Coming Home
TTITLE8=Take It From Me
TTITLE9=Waitin' On Me
TTITLE10=Running Back To You
TTITLE11=Simple Miracles
TTITLE12=Still Got Yesterday
TTITLE13=Rescued (Bonus Track)
TTITLE14=DATA
EXTD=
EXTT0=
EXTT1=
EXTT2=
EXTT3=
EXTT4=
EXTT5=
EXTT6=
EXTT7=
EXTT8=
EXTT9=
EXTT10=
EXTT11=
EXTT12=
EXTT13=
EXTT14=
PLAYORDER=
